<svg id="Isolation_Mode" data-name="Isolation Mode" xmlns="http://www.w3.org/2000/svg" viewBox="0 0 50 50"><defs><style>.cls-1{fill:none;}</style></defs><path class="cls-1" d="M23.84,18.94a.48.48,0,0,0,.4-.48v-.13a.48.48,0,0,0-.58-.48A10,10,0,0,0,16,25.22a.49.49,0,0,0,.09.42.47.47,0,0,0,.38.19h.13a.48.48,0,0,0,.47-.37A8.88,8.88,0,0,1,23.84,18.94Z"/><path class="cls-1" d="M30,46.7H20.22a.31.31,0,0,0-.33.29v.51a.31.31,0,0,0,.33.29H21.9v-.26h6.2v.26H30a.31.31,0,0,0,.33-.29V47A.31.31,0,0,0,30,46.7Z"/><path class="cls-1" d="M30,41.49H20.22a.31.31,0,0,0-.33.29v.52a.31.31,0,0,0,.33.29H30a.31.31,0,0,0,.33-.29v-.52A.31.31,0,0,0,30,41.49Z"/><path class="cls-1" d="M30,44.09H20.22a.31.31,0,0,0-.33.3v.51a.31.31,0,0,0,.33.29H30a.31.31,0,0,0,.33-.29v-.51A.31.31,0,0,0,30,44.09Z"/><path d="M25.09,13.88A13.67,13.67,0,0,0,11.57,27.67,13.82,13.82,0,0,0,19,40l0,.26v7a2.28,2.28,0,0,0,2.25,2.3H22v.05h6.2v-.05h.74a2.28,2.28,0,0,0,2.25-2.3v-7l0-.26a13.82,13.82,0,0,0,7.47-12.32A13.67,13.67,0,0,0,25.09,13.88ZM30.3,47.5a.31.31,0,0,1-.33.29H20.22a.31.31,0,0,1-.33-.29V47a.31.31,0,0,1,.33-.29H30a.31.31,0,0,1,.33.29Zm0-2.6a.31.31,0,0,1-.33.29H20.22a.31.31,0,0,1-.33-.29v-.51a.31.31,0,0,1,.33-.3H30a.31.31,0,0,1,.33.3Zm0-2.6a.31.31,0,0,1-.33.29H20.22a.31.31,0,0,1-.33-.29v-.52a.31.31,0,0,1,.33-.29H30a.31.31,0,0,1,.33.29ZM17.07,25.46a.48.48,0,0,1-.47.37h-.13a.47.47,0,0,1-.38-.19.49.49,0,0,1-.09-.42,10,10,0,0,1,7.66-7.37.48.48,0,0,1,.58.48v.13a.48.48,0,0,1-.4.48A8.88,8.88,0,0,0,17.07,25.46Z"/><path d="M26.1,9.22V1.42a1,1,0,1,0-2,0v7.8a1,1,0,1,0,2,0Z"/><path d="M9.44,20.31A1,1,0,0,0,8.93,19L1.79,15.81a1,1,0,0,0-1.33.51A1,1,0,0,0,1,17.65l7.13,3.17A1,1,0,0,0,9.44,20.31Z"/><path d="M48.21,15.81,41.08,19a1,1,0,0,0-.52,1.33,1,1,0,0,0,1.33.51L49,17.65a1,1,0,0,0,.51-1.33A1,1,0,0,0,48.21,15.81Z"/></svg>