<svg id="Isolation_Mode" data-name="Isolation Mode" xmlns="http://www.w3.org/2000/svg" viewBox="0 0 50 50"><defs><style>.cls-1{fill:none;}.cls-2{fill:#606060;}</style></defs><path class="cls-1" d="M21.09,5.32A19.72,19.72,0,1,0,38.77,15.75l-.93.56a18.67,18.67,0,1,1-1-1.59l.93-.56A19.7,19.7,0,0,0,21.09,5.32Z"/><path d="M41.09,24.69a19.72,19.72,0,1,1-3.27-10.53l1-.6a20.77,20.77,0,1,0,.95,1.59l-1,.6A19.66,19.66,0,0,1,41.09,24.69Z"/><path d="M21.11,6.41a18.61,18.61,0,1,0,16.73,9.9l-4,2.42a13.79,13.79,0,1,1-.93-1.6l4-2.41A18.58,18.58,0,0,0,21.11,6.41Z"/><path d="M21.26,15.71a9.29,9.29,0,1,0,9.44,9.14,9.17,9.17,0,0,0-.84-3.71l-4,2.43a4.35,4.35,0,0,1,.22,1.36,4.63,4.63,0,1,1-1.13-3l4-2.41A9.28,9.28,0,0,0,21.26,15.71Z"/><path class="cls-2" d="M48.09,13.27a.6.6,0,0,0,.58,0l.62-.37a.32.32,0,0,0,.14-.27.28.28,0,0,0-.16-.25l-2.83-1.5.32-.19a.29.29,0,0,0,.13-.18.31.31,0,0,0,0-.23l-.4-.64a.31.31,0,0,0-.41-.1l-.33.2-.07-3.17a.3.3,0,0,0-.45-.25l-.61.37a.59.59,0,0,0-.29.52l.07,3.34-.16.1-.07-3.17a.3.3,0,0,0-.45-.25l-.61.37a.57.57,0,0,0-.29.52l.07,3.34-.16.1-.07-3.17a.28.28,0,0,0-.16-.25.32.32,0,0,0-.3,0l-.6.37a.59.59,0,0,0-.29.52l.06,2.85a.3.3,0,0,1-.14.26l-2.39,1.44-1,.6-.93.56-4,2.41-4,2.41-4,2.41L22,23.7a1,1,0,0,0-.3,1.34l0,.06a.83.83,0,0,0,1.11.26l3-1.79,4-2.43,4-2.41,4-2.42.93-.56,1-.6,2.39-1.44a.33.33,0,0,1,.29,0l2.63,1.39a.57.57,0,0,0,.58,0l.62-.37a.3.3,0,0,0,0-.52l-2.83-1.49.16-.09,3,1.58a.59.59,0,0,0,.59,0l.61-.37a.28.28,0,0,0,.14-.26.29.29,0,0,0-.16-.26l-2.83-1.49.15-.1Z"/></svg>