<svg id="Isolation_Mode" data-name="Isolation Mode" xmlns="http://www.w3.org/2000/svg" viewBox="0 0 50 50"><defs><style>.cls-1{fill:#3f3f3f;}.cls-2{fill:none;}</style></defs><rect class="cls-1" x="1.24" y="12.58" width="39.47" height="6.78"/><path d="M31.29,33.1a10,10,0,0,1,9.94-9.94h.09V10.84a2.08,2.08,0,0,0-2.09-2.08H2.72A2.08,2.08,0,0,0,.63,10.84V33.28a2.08,2.08,0,0,0,2.09,2.08H31.56A9.85,9.85,0,0,1,31.29,33.1Zm-30-13.73V12.58H40.71v6.79Z"/><path d="M41.23,25a8.14,8.14,0,1,0,8.14,8.14A8.15,8.15,0,0,0,41.23,25Zm.09,14.4a6.26,6.26,0,1,1,6.26-6.26A6.26,6.26,0,0,1,41.32,39.36Z"/><path class="cls-2" d="M44.79,32.63v-.25a.31.31,0,0,0-.24-.3.65.65,0,0,0,0,.13c0,.12,0,.24,0,.36s0,.25,0,.37A.33.33,0,0,0,44.79,32.63Z"/><path class="cls-2" d="M43.84,31.77c-1.12-.08-4.21-.81-4.21-.81a4,4,0,0,1-1.06,1l0,.18a2.58,2.58,0,0,0,0,.4c0,.09,0,.19,0,.29a2.36,2.36,0,0,0,.1.46,2.81,2.81,0,0,0,5.33,0,2.3,2.3,0,0,0,.1-.47,3.08,3.08,0,0,0,0-.68,1.8,1.8,0,0,0-.1-.4Z"/><path d="M43.24,35.34l-.72,3.77H40l-.71-3.77a2.84,2.84,0,0,0-2.63,2.82v1.38h9.16V38.16A2.83,2.83,0,0,0,43.24,35.34Z"/><polygon class="cls-1" points="40.51 39.11 42.06 39.11 41.68 36.58 41.66 36.58 42.04 35.88 40.53 35.88 40.91 36.58 40.89 36.58 40.51 39.11"/><path d="M37.31,32.38v.25a.78.78,0,0,0,.8.76h0a3.19,3.19,0,0,0,1.62,1.94,3.37,3.37,0,0,0,3,0,3.14,3.14,0,0,0,1.61-1.94h.05a.78.78,0,0,0,.8-.76v-.25a.78.78,0,0,0-.63-.75c0-.11,0-.22,0-.33v0a2.26,2.26,0,0,0,0-.26h0a3.08,3.08,0,0,0-.51-1.42,4.61,4.61,0,0,0-.51-.57,2.51,2.51,0,0,0-1.31-.69,3.59,3.59,0,0,0-1.42-.11,3.33,3.33,0,0,0-.77.18A3,3,0,0,0,38,31.3a.13.13,0,0,0,0,.06,1.22,1.22,0,0,0,0,.27A.77.77,0,0,0,37.31,32.38Zm7.24-.3a.31.31,0,0,1,.24.3v.25a.33.33,0,0,1-.28.31c0-.12,0-.25,0-.37s0-.24,0-.36A.65.65,0,0,1,44.55,32.08Zm-6,.09,0-.18a4,4,0,0,0,1.06-1s3.09.73,4.21.81h.09a1.8,1.8,0,0,1,.1.4,3.08,3.08,0,0,1,0,.68,2.3,2.3,0,0,1-.1.47,2.81,2.81,0,0,1-5.33,0,2.36,2.36,0,0,1-.1-.46c0-.1,0-.2,0-.29A2.58,2.58,0,0,1,38.54,32.17Zm-.76.21a.32.32,0,0,1,.27-.31c0,.06,0,.12,0,.18a1.73,1.73,0,0,0,0,.32,2.31,2.31,0,0,0,0,.37.33.33,0,0,1-.28-.31Z"/></svg>