<svg id="Isolation_Mode" data-name="Isolation Mode" xmlns="http://www.w3.org/2000/svg" viewBox="0 0 50 50"><defs><style>.cls-1{fill:#3f3f3f;}</style></defs><path d="M23.94,47.48a23.17,23.17,0,0,0,10.84-2.69,7.68,7.68,0,0,1-.91-3.56,7.37,7.37,0,0,1,.3-2.16,17.84,17.84,0,1,1,5.06-5.22,7.7,7.7,0,0,1,5.63.41A23.17,23.17,0,1,0,23.94,47.48Z"/><path class="cls-1" d="M21.1,19.48a1.82,1.82,0,0,0,1.35,1.74v-3.4l-.16.06A1.76,1.76,0,0,0,21.1,19.48Z"/><path class="cls-1" d="M26.71,26.24v4.2a3.17,3.17,0,0,0,.45-.23,2.29,2.29,0,0,0,1.2-2C28.37,27.22,27.81,26.58,26.71,26.24Z"/><path class="cls-1" d="M39.23,33.85a17.79,17.79,0,1,0-5.06,5.22A7.7,7.7,0,0,1,39.23,33.85ZM31,33.35a10.43,10.43,0,0,1-4.26,1.55v1.89A1.11,1.11,0,0,1,25.6,37.9h-2a1.11,1.11,0,0,1-1.11-1.11V34.9a10.78,10.78,0,0,1-5-2.13,10.42,10.42,0,0,1-2.18-2.17.91.91,0,0,1-.24-.59.93.93,0,0,1,.52-.82L17.65,28h0a2.15,2.15,0,0,1,.61-.18,1.09,1.09,0,0,1,.9.44,8.22,8.22,0,0,0,3.28,2.29v-4.8q-4-.62-5.8-3a5.39,5.39,0,0,1-1.1-3.24q-.08-3.72,4-5.6a9.93,9.93,0,0,1,2.86-.8V11a1.11,1.11,0,0,1,1.11-1.11h2A1.11,1.11,0,0,1,26.71,11v2.17a9.2,9.2,0,0,1,5.51,3,.86.86,0,0,1,.3.65.9.9,0,0,1-.48.75L29.76,19h0a1.77,1.77,0,0,1-.7.2,1.44,1.44,0,0,1-.95-.34,6,6,0,0,0-1.39-.92v3.84a9.22,9.22,0,0,1,6,2.88,5.16,5.16,0,0,1,1.15,3.52A6,6,0,0,1,31,33.35Z"/><path d="M39.23,33.85a7.7,7.7,0,0,0-5.06,5.22,7.37,7.37,0,0,0-.3,2.16,7.65,7.65,0,1,0,5.36-7.38Zm-3.4,7.36a5.72,5.72,0,1,1,5.76,5.68A5.72,5.72,0,0,1,35.83,41.21Z"/><polygon class="cls-1" points="42.76 37.14 40.33 37.14 40.33 39.96 37.51 39.96 37.51 42.39 40.33 42.39 40.33 45.21 42.76 45.21 42.76 42.39 45.58 42.39 45.58 39.96 42.76 39.96 42.76 37.14"/></svg>