<svg id="Isolation_Mode" data-name="Isolation Mode" xmlns="http://www.w3.org/2000/svg" viewBox="0 0 50 50"><defs><style>.cls-1{fill:none;}</style></defs><path class="cls-1" d="M38.77,20.81A1.36,1.36,0,0,0,40,19.48V18.43a1.33,1.33,0,0,0-1-1.28l-.18.56a11,11,0,0,1,.12,1.52A13.66,13.66,0,0,1,38.77,20.81Z"/><path class="cls-1" d="M36.39,22.46a11.83,11.83,0,0,0,.42-2c0-.4.07-.81.07-1.23a10.64,10.64,0,0,0-.15-1.7,10.3,10.3,0,0,0-.41-1.68l-.39,0c-4.81-.35-18-3.44-18-3.44a17.3,17.3,0,0,1-4.51,4.37c-.06.26-.12.51-.16.77a10.64,10.64,0,0,0-.15,1.7c0,.42,0,.83.07,1.23a11.21,11.21,0,0,0,.42,2,12,12,0,0,0,22.78,0Z"/><path d="M28.32,47.17H19.7l-3.06-16.1A12.11,12.11,0,0,0,5.44,43.14V49H44.56V43.14a12.11,12.11,0,0,0-11.2-12.07L30.3,47.17Z"/><polygon points="26.67 36.35 26.62 36.35 28.23 33.38 21.77 33.38 23.38 36.35 23.32 36.35 21.68 47.17 28.32 47.17 26.67 36.35"/><path d="M31.47,31a13.53,13.53,0,0,0,6.9-8.28h.2A3.34,3.34,0,0,0,42,19.48V18.43a3.31,3.31,0,0,0-2.67-3.19,13.39,13.39,0,0,0,.09-1.43v-.14a10.22,10.22,0,0,0-.05-1.08h0A12.88,12.88,0,0,0,35,4.1a10,10,0,0,0-2.44-1.44,20.32,20.32,0,0,0-9.92-1.59A12.24,12.24,0,0,0,20,1.44a12.91,12.91,0,0,0-9.24,12.37,2.44,2.44,0,0,0,0,.27,8.93,8.93,0,0,0,0,1.16A3.29,3.29,0,0,0,8,18.43v1.05a3.33,3.33,0,0,0,3.4,3.27h.2A13.53,13.53,0,0,0,18.53,31a14.28,14.28,0,0,0,12.94,0Zm7.47-13.88a1.33,1.33,0,0,1,1,1.28v1.05a1.36,1.36,0,0,1-1.2,1.33,13.66,13.66,0,0,0,.11-1.58,11,11,0,0,0-.12-1.52ZM10,19.48V18.43a1.34,1.34,0,0,1,1.17-1.31c0,.25,0,.51,0,.76a10.22,10.22,0,0,0-.1,1.35,11.75,11.75,0,0,0,.11,1.58A1.36,1.36,0,0,1,10,19.48Zm3.58,3a11.21,11.21,0,0,1-.42-2c0-.4-.07-.81-.07-1.23a10.64,10.64,0,0,1,.15-1.7c0-.26.1-.51.16-.77a17.3,17.3,0,0,0,4.51-4.37s13.18,3.09,18,3.44l.39,0a10.3,10.3,0,0,1,.41,1.68,10.64,10.64,0,0,1,.15,1.7c0,.42,0,.83-.07,1.23a11.83,11.83,0,0,1-.42,2,12,12,0,0,1-22.78,0Z"/></svg>