<svg id="Isolation_Mode" data-name="Isolation Mode" xmlns="http://www.w3.org/2000/svg" viewBox="0 0 50 50"><defs><style>.cls-1{fill:none;}.cls-2{fill:#606060;}</style></defs><path class="cls-1" d="M44,8h-5.8a41.71,41.71,0,0,1-3.9,15l7.44,0Z"/><path class="cls-1" d="M6.05,8,8.31,23l7.44,0a41.71,41.71,0,0,1-3.9-15Z"/><path class="cls-2" d="M44,8,41.69,23l-7.44,0a22.44,22.44,0,0,1-1.47,2.53l10,0A1.26,1.26,0,0,0,44,24.4L46.66,6.88a1.28,1.28,0,0,0-.29-1,1.26,1.26,0,0,0-1-.44h-7.1c0,.85-.09,1.69-.16,2.52Z"/><path class="cls-2" d="M3.34,6.88,6,24.4a1.26,1.26,0,0,0,1.24,1.07l10,0A22.44,22.44,0,0,1,15.75,23L8.31,23,6.05,8h5.8c-.07-.83-.12-1.67-.16-2.52H4.59a1.26,1.26,0,0,0-1,.44A1.28,1.28,0,0,0,3.34,6.88Z"/><path class="cls-2" d="M23.35,42.09c-2.78.4-5,1.78-5.58,3.54a35,35,0,0,1,7.23-.7,35,35,0,0,1,7.23.7c-.61-1.76-2.8-3.14-5.58-3.54a11.4,11.4,0,0,0-3.3,0Z"/><path d="M15.75,23a22.44,22.44,0,0,0,1.47,2.53c1.77,2.62,3.86,4.37,6.13,4.94V42.09a11.4,11.4,0,0,1,3.3,0V30.44c2.27-.57,4.36-2.32,6.13-4.94A22.44,22.44,0,0,0,34.25,23a41.71,41.71,0,0,0,3.9-15c.07-.83.12-1.67.16-2.52,0-.51,0-1,0-1.54H11.65c0,.52,0,1,0,1.54,0,.85.09,1.69.16,2.52A41.71,41.71,0,0,0,15.75,23ZM24.56,5.4a.48.48,0,0,1,.85,0l2.67,5.3,6,.68a.49.49,0,0,1,.39.31.47.47,0,0,1-.11.49l-4.12,4.35L31,22.47a.46.46,0,0,1-.2.45.47.47,0,0,1-.5,0l-5.18-2.88L19.9,23a.47.47,0,0,1-.5,0,.48.48,0,0,1-.21-.45l.74-5.88-4.26-4.24a.49.49,0,0,1-.11-.49.48.48,0,0,1,.38-.32l6-.89Z"/><path d="M17.77,45.63c-3.9.81-6.51,2.27-6.51,3.94H38.74c0-1.67-2.61-3.13-6.51-3.94a35,35,0,0,0-7.23-.7A35,35,0,0,0,17.77,45.63Z"/><path class="cls-2" d="M39.53,3.89a.37.37,0,0,0,.24-.1.34.34,0,0,0,.09-.24V.76a.33.33,0,0,0-.09-.23.37.37,0,0,0-.24-.1H10.47a.37.37,0,0,0-.24.1.33.33,0,0,0-.09.23V3.55a.34.34,0,0,0,.09.24.37.37,0,0,0,.24.1H39.53Z"/><path class="cls-2" d="M15.94,11.6a.48.48,0,0,0-.38.32.49.49,0,0,0,.11.49l4.26,4.24-.74,5.88a.48.48,0,0,0,.21.45.47.47,0,0,0,.5,0l5.21-2.94,5.18,2.88a.47.47,0,0,0,.5,0,.46.46,0,0,0,.2-.45l-.78-5.94,4.12-4.35a.47.47,0,0,0,.11-.49.49.49,0,0,0-.39-.31l-6-.68L25.41,5.4a.48.48,0,0,0-.85,0l-2.67,5.31Zm6.31,0a.47.47,0,0,0,.37-.25L25,6.66l2.37,4.69a.46.46,0,0,0,.39.26h0l5.26.6L29.37,16l-.09.13v0l0,.08v.11h0v0l.69,5.22L25.31,19.1a.48.48,0,0,0-.5,0h0l-.06.06-4.5,2.53.65-5.19a.46.46,0,0,0-.23-.47L17,12.4l5.24-.79Z"/></svg>