<svg id="Isolation_Mode" data-name="Isolation Mode" xmlns="http://www.w3.org/2000/svg" viewBox="0 0 50 50"><path d="M15.28,27.69.79,13.43a.17.17,0,0,0-.28.13V41.41a.17.17,0,0,0,.27.14L15.27,28.29A.43.43,0,0,0,15.28,27.69Z"/><path d="M43.17,41.92l-14.24-13-.1.1-3.38,3.33a4,4,0,0,1-2.76,1.14A3.74,3.74,0,0,1,20,32.38L16.59,29l-.09-.1-14.24,13a.1.1,0,0,0,.06.17H43.11A.1.1,0,0,0,43.17,41.92Z"/><path d="M44.88,41.38V21.18a6.82,6.82,0,1,0-8.5-9.08H1.47a.09.09,0,0,0-.06.16L16.53,27.14l.9.89,3.45,3.39a2.51,2.51,0,0,0,.4.33l.16.08a2.64,2.64,0,0,0,.29.15l.2.05.28.08.22,0,.28,0,.29,0,.22,0a1.4,1.4,0,0,0,.29-.09l.2-.06a2.39,2.39,0,0,0,.32-.16l.15-.09a2,2,0,0,0,.43-.34L28,28l.91-.89,8.38-8.25a6.92,6.92,0,0,0,.86.93l-8,7.87a.43.43,0,0,0,0,.6L44.61,41.52A.17.17,0,0,0,44.88,41.38ZM37.59,14.73a5.08,5.08,0,1,1,5.08,5.08A5.09,5.09,0,0,1,37.59,14.73Z"/><path d="M40.25,12.25h1.41l.75,2c.09.28.17.58.26.87h0c.09-.29.17-.59.26-.87l.72-2h1.4v5H43.89V15.75A17.11,17.11,0,0,1,44.06,14h0l-.41,1.19L43,16.81H42.3l-.61-1.64L41.29,14h0a17.11,17.11,0,0,1,.17,1.77v1.47H40.25Z"/></svg>