<svg id="Isolation_Mode" data-name="Isolation Mode" xmlns="http://www.w3.org/2000/svg" viewBox="0 0 50 50"><defs><style>.cls-1{fill:#010201;}.cls-2{fill:#404040;}</style></defs><rect class="cls-1" x="7.62" y="34.56" width="9.73" height="9.15"/><rect class="cls-1" x="20.73" y="26.18" width="9.73" height="17.53"/><path class="cls-1" d="M6,5.57H3.59V48.12a1.2,1.2,0,0,0,1.19,1.19H46.41V46.93H6Z"/><polygon class="cls-2" points="38.24 43.3 43.8 36.28 43.8 34.44 36.79 43.3 38.24 43.3"/><polygon class="cls-2" points="36.41 43.3 43.8 33.96 43.8 32.12 34.96 43.3 36.41 43.3"/><polygon class="cls-2" points="34.11 16.61 34.11 18.43 35.55 16.61 34.11 16.61"/><polygon class="cls-2" points="43.8 20.54 34.11 32.8 34.11 34.64 43.8 22.38 43.8 20.54"/><polygon class="cls-2" points="43.8 22.86 34.11 35.12 34.11 36.96 43.8 24.7 43.8 22.86"/><polygon class="cls-2" points="43.8 31.64 43.8 29.8 34.11 42.06 34.11 43.3 34.58 43.3 43.8 31.64"/><polygon class="cls-2" points="43.8 18.23 34.11 30.48 34.11 32.33 43.8 20.07 43.8 18.23"/><polygon class="cls-2" points="43.8 27.49 34.11 39.75 34.11 41.59 43.8 29.33 43.8 27.49"/><polygon class="cls-2" points="35.92 16.61 34.11 18.91 34.11 20.75 37.38 16.61 35.92 16.61"/><polygon class="cls-2" points="43.8 25.17 34.11 37.43 34.11 39.27 43.8 27.02 43.8 25.17"/><polygon class="cls-2" points="39.58 16.61 34.11 23.54 34.11 25.38 41.04 16.61 39.58 16.61"/><polygon class="cls-2" points="41.91 43.3 43.8 40.91 43.8 39.07 40.45 43.3 41.91 43.3"/><polygon class="cls-2" points="43.74 43.3 43.8 43.22 43.8 41.38 42.28 43.3 43.74 43.3"/><polygon class="cls-2" points="41.41 16.61 34.11 25.86 34.11 27.7 42.87 16.61 41.41 16.61"/><polygon class="cls-2" points="40.08 43.3 43.8 38.59 43.8 36.75 38.62 43.3 40.08 43.3"/><polygon class="cls-2" points="37.75 16.61 34.11 21.22 34.11 23.06 39.21 16.61 37.75 16.61"/><polygon class="cls-2" points="43.8 16.61 43.24 16.61 34.11 28.17 34.11 30.01 43.8 17.75 43.8 16.61"/><path class="cls-2" d="M41.58.69H35.42a1.62,1.62,0,0,0,0,3.23h2.13L26.18,17.35l-.06-4a1.61,1.61,0,0,0-2.84-1L8.38,29.88A1.61,1.61,0,0,0,10.84,32L23,17.66l.06,4a1.62,1.62,0,0,0,2.85,1L40,6.05V9A1.62,1.62,0,0,0,43.2,9V2.3a1.6,1.6,0,0,0-.48-1.13A1.62,1.62,0,0,0,41.58.69Z"/></svg>