<svg id="Isolation_Mode" data-name="Isolation Mode" xmlns="http://www.w3.org/2000/svg" viewBox="0 0 50 50"><defs><style>.cls-1{fill:none;}</style></defs><path class="cls-1" d="M36,16.17c-4.85-.36-18.16-3.48-18.16-3.48a17.53,17.53,0,0,1-4.56,4.42c-.06.26-.11.51-.16.77A12.36,12.36,0,0,0,13,19.61a10,10,0,0,0,.07,1.23,11.43,11.43,0,0,0,.42,2,12.13,12.13,0,0,0,23,0,11.43,11.43,0,0,0,.42-2A10,10,0,0,0,37,19.61a12.09,12.09,0,0,0-.14-1.72,12.2,12.2,0,0,0-.42-1.71Zm.07,2-1.11,4a.48.48,0,0,1-.46.35H27.94a.47.47,0,0,1-.47-.39L27,19.82a1.36,1.36,0,0,0-.6-.42A4.21,4.21,0,0,0,25,19.17a4.1,4.1,0,0,0-1.42.24,1.36,1.36,0,0,0-.62.42l-.45,2.27a.48.48,0,0,1-.47.39H15.47a.48.48,0,0,1-.46-.35l-1.11-4a.49.49,0,0,1,.08-.42.46.46,0,0,1,.38-.18h8.5a.5.5,0,0,1,.37.17.45.45,0,0,1,.09.39l-.07.36a5.34,5.34,0,0,1,3.5,0l-.07-.35a.45.45,0,0,1,.09-.39.5.5,0,0,1,.37-.17h8.5a.46.46,0,0,1,.38.18A.49.49,0,0,1,36.1,18.17Z"/><path class="cls-1" d="M22.27,18.52H15l.84,3h5.84l.39-1.95,0,0c0-.05.06-.1.08-.15Z"/><path class="cls-1" d="M11.06,17.47a1.36,1.36,0,0,0-1.18,1.32v1.07a1.38,1.38,0,0,0,1.21,1.34,14.14,14.14,0,0,1-.1-1.59,12.28,12.28,0,0,1,.09-1.37C11.08,18,11.07,17.73,11.06,17.47Z"/><path class="cls-1" d="M28.33,21.54h5.84l.84-3H27.73l.17.9a.75.75,0,0,1,.09.15l0,0Z"/><path class="cls-1" d="M40.12,19.86V18.79a1.36,1.36,0,0,0-1-1.29c0,.19-.11.38-.17.57A12.83,12.83,0,0,1,39,19.61a14.14,14.14,0,0,1-.1,1.59A1.38,1.38,0,0,0,40.12,19.86Z"/><path d="M5.19,43.35v5.84H44.81V43.35a12.15,12.15,0,0,0-12.26-12h-.66a13.6,13.6,0,0,0,6.61-8.16h.2a3.38,3.38,0,0,0,3.44-3.3V18.79a3.32,3.32,0,0,0-2.7-3.21,13.93,13.93,0,0,0,.09-1.45V14a8.47,8.47,0,0,0-.06-1.1h0a12.91,12.91,0,0,0-2.2-6.1,19.73,19.73,0,0,0-2.2-2.46A11.23,11.23,0,0,0,30,1.44a17.47,17.47,0,0,0-8.07-.3,7.73,7.73,0,0,0-2,.5,13,13,0,0,0-9.33,12.49c0,.09,0,.18,0,.27a9.25,9.25,0,0,0,0,1.18,3.31,3.31,0,0,0-2.83,3.21v1.07a3.37,3.37,0,0,0,3.44,3.3h.2a13.6,13.6,0,0,0,6.61,8.16h-.66A12.15,12.15,0,0,0,5.19,43.35ZM39.07,17.5a1.36,1.36,0,0,1,1,1.29v1.07a1.38,1.38,0,0,1-1.21,1.34,14.14,14.14,0,0,0,.1-1.59,12.83,12.83,0,0,0-.11-1.54C39,17.88,39,17.69,39.07,17.5ZM9.88,19.86V18.79a1.36,1.36,0,0,1,1.18-1.32c0,.26,0,.51,0,.77A12.28,12.28,0,0,0,11,19.61a14.14,14.14,0,0,0,.1,1.59A1.38,1.38,0,0,1,9.88,19.86ZM25,38.17a6.51,6.51,0,0,1-6.51-6.51c0-.05,0-.09,0-.13l.8.38a14.47,14.47,0,0,0,11.4,0l.8-.38a.53.53,0,0,1,0,.13A6.51,6.51,0,0,1,25,38.17ZM13.5,22.87a11.43,11.43,0,0,1-.42-2A10,10,0,0,1,13,19.61a12.36,12.36,0,0,1,.14-1.73c0-.26.1-.51.16-.77a17.53,17.53,0,0,0,4.56-4.42S31.18,15.81,36,16.17h.4a12.2,12.2,0,0,1,.42,1.71A12.09,12.09,0,0,1,37,19.61a10,10,0,0,1-.07,1.23,11.43,11.43,0,0,1-.42,2,12.13,12.13,0,0,1-23,0Z"/><path d="M19.3,31.91a5.7,5.7,0,0,0,11.4,0,14.47,14.47,0,0,1-11.4,0Z"/><path d="M23.23,17.74a.5.5,0,0,0-.37-.17h-8.5a.46.46,0,0,0-.38.18.49.49,0,0,0-.08.42l1.11,4a.48.48,0,0,0,.46.35h6.59a.48.48,0,0,0,.47-.39L23,19.83a1.36,1.36,0,0,1,.62-.42A4.1,4.1,0,0,1,25,19.17a4.21,4.21,0,0,1,1.39.23,1.36,1.36,0,0,1,.6.42l.46,2.28a.47.47,0,0,0,.47.39h6.59a.48.48,0,0,0,.46-.35l1.11-4a.49.49,0,0,0-.08-.42.46.46,0,0,0-.38-.18h-8.5a.5.5,0,0,0-.37.17.45.45,0,0,0-.09.39l.07.35a5.34,5.34,0,0,0-3.5,0l.07-.36A.45.45,0,0,0,23.23,17.74Zm-1.14,1.68s-.06.1-.08.15l0,0-.39,1.95H15.83l-.84-3h7.28ZM35,18.52l-.84,3H28.33l-.39-1.95,0,0a.75.75,0,0,0-.09-.15l-.17-.9Z"/></svg>