<svg id="Isolation_Mode" data-name="Isolation Mode" xmlns="http://www.w3.org/2000/svg" viewBox="0 0 50 50"><defs><style>.cls-1{fill:#606060;}</style></defs><path d="M21.9,4.72a.44.44,0,0,0-.51-.44A21.53,21.53,0,0,0,3.61,21.83a.45.45,0,0,0,.44.52H7A.45.45,0,0,0,7.45,22,17.79,17.79,0,0,1,21.54,8.1a.44.44,0,0,0,.36-.43Z"/><path d="M45.94,27.86H43a.42.42,0,0,0-.43.37A17.78,17.78,0,0,1,28.17,42.57a.44.44,0,0,0-.36.43v3a.44.44,0,0,0,.51.44,21.52,21.52,0,0,0,18.07-18A.45.45,0,0,0,45.94,27.86Z"/><path class="cls-1" d="M28.35,39.61A14.74,14.74,0,0,0,39.51,28.39a.45.45,0,0,0-.44-.53h-3a.45.45,0,0,0-.43.32,11.13,11.13,0,0,1-7.54,7.62.45.45,0,0,0-.32.42v3A.44.44,0,0,0,28.35,39.61Z"/><path d="M49.42,25.28a1.86,1.86,0,0,0-1.87-1.85l-14.86,0a7.91,7.91,0,0,0-5.91-5.81V2.54A1.85,1.85,0,0,0,24.92.7a1.87,1.87,0,0,0-1.86,1.85V17.66a7.94,7.94,0,0,0-5.9,5.82l-14.73,0a1.84,1.84,0,1,0,0,3.68l14.72,0A7.93,7.93,0,0,0,23.06,33V47.46a1.86,1.86,0,0,0,1.86,1.84h0a1.83,1.83,0,0,0,1.31-.54,1.78,1.78,0,0,0,.55-1.3V33a7.91,7.91,0,0,0,5.91-5.82l14.86,0A1.86,1.86,0,0,0,49.42,25.28ZM25,31.14a5.72,5.72,0,1,1,5.72-5.72A5.72,5.72,0,0,1,25,31.14Z"/><path d="M42.91,22.42h3a.44.44,0,0,0,.44-.51,21.45,21.45,0,0,0-18-17.68.45.45,0,0,0-.51.45V7.62a.44.44,0,0,0,.37.43,17.71,17.71,0,0,1,14.29,14A.44.44,0,0,0,42.91,22.42Z"/><path class="cls-1" d="M28.13,14.82a11.1,11.1,0,0,1,7.45,7.29.43.43,0,0,0,.42.31h3a.44.44,0,0,0,.43-.54A14.71,14.71,0,0,0,28.35,11a.44.44,0,0,0-.54.43v3A.43.43,0,0,0,28.13,14.82Z"/><path class="cls-1" d="M21.82,35.83a11.08,11.08,0,0,1-7.54-7.34.44.44,0,0,0-.42-.32h-3a.45.45,0,0,0-.44.54A14.75,14.75,0,0,0,21.6,39.64a.45.45,0,0,0,.54-.44v-3A.45.45,0,0,0,21.82,35.83Z"/><path d="M7,28.17H4a.45.45,0,0,0-.44.51,21.46,21.46,0,0,0,18,17.72.44.44,0,0,0,.51-.44V43a.44.44,0,0,0-.37-.43,17.72,17.72,0,0,1-14.34-14A.45.45,0,0,0,7,28.17Z"/><path class="cls-1" d="M21.36,11.05A14.79,14.79,0,0,0,10.46,21.8a.45.45,0,0,0,.44.55h3a.45.45,0,0,0,.42-.31,11.14,11.14,0,0,1,7.26-7.16.44.44,0,0,0,.31-.42v-3A.44.44,0,0,0,21.36,11.05Z"/></svg>